<svg width="804" height="866" viewBox="0 0 804 866" fill="none" xmlns="http://www.w3.org/2000/svg">
<g filter="url(#filter0_d_5_6)">
<path d="M115.776 126.63L172.82 134.308L278.921 149.128L331.402 155.814C336.365 156.475 350.42 157.434 354.174 159.156C358.783 161.267 362.445 168.067 365.252 172.265C368.457 177.08 380.585 194.444 381.943 198.505C382.89 201.323 382.741 204.677 382.741 207.632V740.422C379.296 737.946 375.77 735.185 373.808 731.295C371.766 727.21 370.408 705.089 370.146 699.35L368.104 677.674L366.666 654.856L363.301 610.362L361.167 586.403L355.463 508.824L348.618 416.413L344.898 361.651C344.111 353.414 343.506 340.67 341.076 333.129C338.532 325.211 330.352 305.725 330.352 298.902C330.352 285.782 347.169 260.672 347.374 244.14C347.5 233.621 346.347 209.458 341.122 200.787C335.509 191.489 322.081 184.404 312.007 181.016C288.105 172.972 267.444 170.839 242.413 171.124C216.013 171.432 189.979 182.042 189.933 212.196V221.323L196.778 280.648C191.496 275.994 189.397 269.696 186.214 263.535L172.466 237.295L134.874 165.42C129.946 155.859 118.457 136.054 115.776 126.63ZM420.39 740.422C418.542 733.907 419.249 726.64 419.249 719.886V686.801V573.854V208.773C419.249 205.796 419.124 202.51 419.991 199.646C421.588 194.341 433.362 177.901 437.127 172.265C440.241 167.599 443.539 160.97 448.958 158.871L479.716 154.833L539.041 146.995L637.157 133.167L686.214 126.63C684.629 135.061 673.847 153.098 669.386 161.997L628.304 240.718L613.358 269.24C611.099 273.301 609.182 278.093 605.212 280.648L613.096 216.759C613.723 205.579 610.118 192.732 601.744 185.02C593.016 176.988 581.288 173.714 569.845 172.117C546.776 168.911 514.33 172.813 492.265 180.251C480.902 184.085 469.322 189.835 461.941 199.646C456.077 207.438 455.86 222.11 455.757 231.591C455.586 245.783 452.346 243.695 458.518 260.113L467.851 284.071C469.471 288.144 472.437 294.613 472.323 298.902C472.197 303.763 463.515 325.622 461.496 331.988C458.233 342.29 458.119 354.315 457.092 365.073L453.373 419.835L444.451 535.064L438.69 611.503V620.63L436.26 650.292L431.902 701.632C431.445 708.306 430.875 725.841 428.456 731.295C426.722 735.208 423.722 737.923 420.39 740.422Z" stroke="white" stroke-width="1.14088" shape-rendering="crispEdges"/>
</g>
<defs>
<filter id="filter0_d_5_6" x="111.566" y="125.949" width="578.777" height="622.431" filterUnits="userSpaceOnUse" color-interpolation-filters="sRGB">
<feFlood flood-opacity="0" result="BackgroundImageFix"/>
<feColorMatrix in="SourceAlpha" type="matrix" values="0 0 0 0 0 0 0 0 0 0 0 0 0 0 0 0 0 0 127 0" result="hardAlpha"/>
<feOffset dy="3.42263"/>
<feGaussianBlur stdDeviation="1.71132"/>
<feComposite in2="hardAlpha" operator="out"/>
<feColorMatrix type="matrix" values="0 0 0 0 0 0 0 0 0 0 0 0 0 0 0 0 0 0 0.25 0"/>
<feBlend mode="normal" in2="BackgroundImageFix" result="effect1_dropShadow_5_6"/>
<feBlend mode="normal" in="SourceGraphic" in2="effect1_dropShadow_5_6" result="shape"/>
</filter>
</defs>
</svg>
