<svg width="43" height="43" viewBox="0 0 43 43" fill="none" xmlns="http://www.w3.org/2000/svg">
<g clip-path="url(#clip0_5_240)">
<path d="M34.9375 17.4688C34.9375 21.3236 33.6861 24.8846 31.5781 27.7736L42.2105 38.4145C43.2604 39.4643 43.2604 41.1691 42.2105 42.2189C41.1607 43.2688 39.4559 43.2688 38.4061 42.2189L27.7736 31.5781C24.8846 33.6945 21.3236 34.9375 17.4688 34.9375C7.81895 34.9375 0 27.1186 0 17.4688C0 7.81895 7.81895 0 17.4688 0C27.1186 0 34.9375 7.81895 34.9375 17.4688ZM17.4688 29.5625C19.0569 29.5625 20.6295 29.2497 22.0968 28.6419C23.5641 28.0342 24.8973 27.1433 26.0203 26.0203C27.1433 24.8973 28.0342 23.5641 28.6419 22.0968C29.2497 20.6295 29.5625 19.0569 29.5625 17.4688C29.5625 15.8806 29.2497 14.308 28.6419 12.8407C28.0342 11.3734 27.1433 10.0402 26.0203 8.91718C24.8973 7.79417 23.5641 6.90335 22.0968 6.29558C20.6295 5.68781 19.0569 5.375 17.4688 5.375C15.8806 5.375 14.308 5.68781 12.8407 6.29558C11.3734 6.90335 10.0402 7.79417 8.91718 8.91718C7.79417 10.0402 6.90335 11.3734 6.29558 12.8407C5.68781 14.308 5.375 15.8806 5.375 17.4688C5.375 19.0569 5.68781 20.6295 6.29558 22.0968C6.90335 23.5641 7.79417 24.8973 8.91718 26.0203C10.0402 27.1433 11.3734 28.0342 12.8407 28.6419C14.308 29.2497 15.8806 29.5625 17.4688 29.5625Z" fill="#151518"/>
</g>
<defs>
<clipPath id="clip0_5_240">
<rect width="43" height="43" fill="white"/>
</clipPath>
</defs>
</svg>
