<svg width="43" height="43" viewBox="0 0 43 43" fill="none" xmlns="http://www.w3.org/2000/svg">
<path d="M18.3002 8.89395L28.6135 19.2072C29.2182 19.8119 29.5625 20.6434 29.5625 21.5C29.5625 22.3566 29.2182 23.1881 28.6135 23.7928L18.3002 34.1061C17.7627 34.6436 17.0404 34.9375 16.2846 34.9375C14.7141 34.9375 13.4375 33.6609 13.4375 32.0904V26.875H2.6875C1.20098 26.875 0 25.674 0 24.1875V18.8125C0 17.326 1.20098 16.125 2.6875 16.125H13.4375V10.9096C13.4375 9.33906 14.7141 8.0625 16.2846 8.0625C17.0404 8.0625 17.7627 8.36484 18.3002 8.89395ZM29.5625 34.9375H34.9375C36.424 34.9375 37.625 33.7365 37.625 32.25V10.75C37.625 9.26348 36.424 8.0625 34.9375 8.0625H29.5625C28.076 8.0625 26.875 6.86152 26.875 5.375C26.875 3.88848 28.076 2.6875 29.5625 2.6875H34.9375C39.3887 2.6875 43 6.29883 43 10.75V32.25C43 36.7012 39.3887 40.3125 34.9375 40.3125H29.5625C28.076 40.3125 26.875 39.1115 26.875 37.625C26.875 36.1385 28.076 34.9375 29.5625 34.9375Z" fill="white"/>
</svg>
