<svg width="580" height="623" viewBox="0 0 580 623" fill="none" xmlns="http://www.w3.org/2000/svg">
<g filter="url(#filter0_d_5_7)">
<path d="M4.77607 1.07791L61.8199 8.75601L167.921 23.576L220.402 30.2615C225.365 30.9232 239.42 31.8816 243.174 33.6043C247.783 35.7149 251.445 42.5146 254.252 46.713C257.457 51.5275 269.585 68.8916 270.943 72.9531C271.89 75.7711 271.741 79.1253 271.741 82.0802V614.87C268.296 612.394 264.77 609.633 262.808 605.743C260.766 601.658 259.408 579.537 259.146 573.798L257.104 552.121L255.666 529.304L252.301 484.81L250.167 460.851L244.463 383.272L237.618 290.861L233.898 236.099C233.111 227.861 232.506 215.118 230.076 207.577C227.532 199.659 219.352 180.173 219.352 173.35C219.352 160.23 236.169 135.12 236.374 118.588C236.5 108.069 235.347 83.9056 230.122 75.2349C224.509 65.9368 211.081 58.8519 201.007 55.4635C177.105 47.4203 156.444 45.2869 131.413 45.5721C105.014 45.8801 78.9787 56.4903 78.9331 86.6437V95.7707L85.7783 155.096C80.4961 150.441 78.3968 144.144 75.2138 137.983L61.4662 111.743L23.8743 39.8677C18.9458 30.3072 7.45713 10.5016 4.77607 1.07791ZM309.39 614.87C307.542 608.355 308.249 601.088 308.249 594.334V561.248V448.302V83.221C308.249 80.2433 308.124 76.9576 308.991 74.094C310.588 68.7889 322.362 52.3489 326.127 46.713C329.241 42.0468 332.539 35.4183 337.958 33.3191L368.716 29.2804L428.041 21.4426L526.157 7.61514L575.214 1.07791C573.629 9.50899 562.847 27.5463 558.386 36.4451L517.304 115.166L502.358 143.688C500.099 147.749 498.182 152.541 494.212 155.096L502.096 91.2072C502.723 80.0266 499.118 67.1803 490.744 59.468C482.016 51.4362 470.288 48.1619 458.845 46.5647C435.776 43.3588 403.33 47.2606 381.265 54.6991C369.902 58.5325 358.322 64.2825 350.941 74.094C345.077 81.8862 344.86 96.5579 344.757 106.039C344.586 120.231 341.346 118.143 347.518 134.56L356.851 158.519C358.471 162.592 361.437 169.061 361.323 173.35C361.197 178.21 352.515 200.07 350.496 206.436C347.233 216.738 347.119 228.763 346.092 239.521L342.373 294.283L333.451 409.512L327.69 485.951V495.078L325.26 524.74L320.902 576.08C320.445 582.754 319.875 600.289 317.456 605.743C315.722 609.656 312.722 612.371 309.39 614.87Z" stroke="white" stroke-width="1.14088" shape-rendering="crispEdges"/>
</g>
<defs>
<filter id="filter0_d_5_7" x="0.566473" y="0.396408" width="578.777" height="622.431" filterUnits="userSpaceOnUse" color-interpolation-filters="sRGB">
<feFlood flood-opacity="0" result="BackgroundImageFix"/>
<feColorMatrix in="SourceAlpha" type="matrix" values="0 0 0 0 0 0 0 0 0 0 0 0 0 0 0 0 0 0 127 0" result="hardAlpha"/>
<feOffset dy="3.42263"/>
<feGaussianBlur stdDeviation="1.71132"/>
<feComposite in2="hardAlpha" operator="out"/>
<feColorMatrix type="matrix" values="0 0 0 0 0 0 0 0 0 0 0 0 0 0 0 0 0 0 0.25 0"/>
<feBlend mode="normal" in2="BackgroundImageFix" result="effect1_dropShadow_5_7"/>
<feBlend mode="normal" in="SourceGraphic" in2="effect1_dropShadow_5_7" result="shape"/>
</filter>
</defs>
</svg>
